<svg xmlns="http://www.w3.org/2000/svg" width="1200" height="760" viewBox="0 0 1200 760" role="img" aria-labelledby="title desc"><title id="title">EvidenceDesk: interface, rules, durable work.</title><desc id="desc">One application repository; independently deployed processes.</desc><defs><marker id="arrow" markerWidth="10" markerHeight="10" refX="9" refY="5" orient="auto"><path d="M0 0L10 5L0 10" fill="#3b82c4"/></marker></defs><rect width="1200" height="760" rx="24" fill="#f4f9ff"/><text x="50" y="65" fill="#123b66" font-family="Arial,sans-serif" font-size="34" font-weight="700">EvidenceDesk: interface, rules, durable work.</text><text x="50" y="105" fill="#456581" font-family="Arial,sans-serif" font-size="21">One application repository; independently deployed processes.</text><path d="M380 250H425" fill="none" stroke="#3b82c4" stroke-width="3" marker-end="url(#arrow)"/><path d="M765 250H810" fill="none" stroke="#3b82c4" stroke-width="3" marker-end="url(#arrow)"/><path d="M985 330V450" fill="none" stroke="#3b82c4" stroke-width="3" marker-end="url(#arrow)"/><path d="M820 540H775" fill="none" stroke="#3b82c4" stroke-width="3" marker-end="url(#arrow)"/><path d="M435 540H390" fill="none" stroke="#3b82c4" stroke-width="3" marker-end="url(#arrow)"/><rect x="50" y="170" width="330" height="160" rx="14" fill="white" stroke="#b7d4ed" stroke-width="2"/><rect x="50" y="170" width="7" height="160" rx="3" fill="#2074b8"/><text x="72" y="206" fill="#164c7b" font-family="Arial,sans-serif" font-size="25" font-weight="700">Browser / React</text><text x="72" y="242" fill="#29465e" font-family="Arial,sans-serif" font-size="21">Question form and run view</text><text x="72" y="271" fill="#29465e" font-family="Arial,sans-serif" font-size="21">Inline evidence and review</text><text x="72" y="300" fill="#29465e" font-family="Arial,sans-serif" font-size="21">No model credentials</text><rect x="435" y="170" width="330" height="160" rx="14" fill="white" stroke="#b7d4ed" stroke-width="2"/><rect x="435" y="170" width="7" height="160" rx="3" fill="#2074b8"/><text x="457" y="206" fill="#164c7b" font-family="Arial,sans-serif" font-size="25" font-weight="700">Next.js server</text><text x="457" y="242" fill="#29465e" font-family="Arial,sans-serif" font-size="21">Render pages and API routes</text><text x="457" y="271" fill="#29465e" font-family="Arial,sans-serif" font-size="21">Validate user session</text><text x="457" y="300" fill="#29465e" font-family="Arial,sans-serif" font-size="21">Forward scoped requests</text><rect x="820" y="170" width="330" height="160" rx="14" fill="white" stroke="#b7d4ed" stroke-width="2"/><rect x="820" y="170" width="7" height="160" rx="3" fill="#2074b8"/><text x="842" y="206" fill="#164c7b" font-family="Arial,sans-serif" font-size="25" font-weight="700">Python / FastAPI</text><text x="842" y="242" fill="#29465e" font-family="Arial,sans-serif" font-size="21">Authorize each operation</text><text x="842" y="271" fill="#29465e" font-family="Arial,sans-serif" font-size="21">Validate contracts</text><text x="842" y="300" fill="#29465e" font-family="Arial,sans-serif" font-size="21">Create durable run and job</text><rect x="50" y="460" width="330" height="160" rx="14" fill="white" stroke="#b7d4ed" stroke-width="2"/><rect x="50" y="460" width="7" height="160" rx="3" fill="#2074b8"/><text x="72" y="496" fill="#164c7b" font-family="Arial,sans-serif" font-size="25" font-weight="700">Private storage</text><text x="72" y="532" fill="#29465e" font-family="Arial,sans-serif" font-size="21">Original evidence objects</text><text x="72" y="561" fill="#29465e" font-family="Arial,sans-serif" font-size="21">Authorized excerpts</text><text x="72" y="590" fill="#29465e" font-family="Arial,sans-serif" font-size="21">No public sensitive files</text><rect x="435" y="460" width="330" height="160" rx="14" fill="white" stroke="#b7d4ed" stroke-width="2"/><rect x="435" y="460" width="7" height="160" rx="3" fill="#2074b8"/><text x="457" y="496" fill="#164c7b" font-family="Arial,sans-serif" font-size="25" font-weight="700">Python worker</text><text x="457" y="532" fill="#29465e" font-family="Arial,sans-serif" font-size="21">Research graph and loop</text><text x="457" y="561" fill="#29465e" font-family="Arial,sans-serif" font-size="21">Model adapter and tools</text><text x="457" y="590" fill="#29465e" font-family="Arial,sans-serif" font-size="21">Checkpoint and cancellation</text><rect x="820" y="460" width="330" height="160" rx="14" fill="white" stroke="#b7d4ed" stroke-width="2"/><rect x="820" y="460" width="7" height="160" rx="3" fill="#2074b8"/><text x="842" y="496" fill="#164c7b" font-family="Arial,sans-serif" font-size="25" font-weight="700">PostgreSQL</text><text x="842" y="532" fill="#29465e" font-family="Arial,sans-serif" font-size="21">Runs, jobs and events</text><text x="842" y="561" fill="#29465e" font-family="Arial,sans-serif" font-size="21">Source metadata, approvals</text><text x="842" y="590" fill="#29465e" font-family="Arial,sans-serif" font-size="21">Versions and idempotency</text><rect x="50" y="670" width="1100" height="58" rx="12" fill="#dfedfb"/><text x="72" y="707" fill="#164c7b" font-family="Arial,sans-serif" font-size="22">The API owns business rules; the worker owns execution; the database remembers.</text></svg>
